<svg version="1.2" xmlns="http://www.w3.org/2000/svg" viewBox="0 0 120 42" width="120" height="42">
	<title>GLS_Logo_2021</title>
	<style>
		.s0 { fill: #fddb3f } 
		.s1 { fill: #fdeb94 } 
		.s2 { fill: #fee679 } 
		.s3 { fill: #061ab1 } 
		.s4 { fill: #ffd101 } 
	</style>
	<path class="s0" d="m118.8 34.4q0-0.3 0-0.4 0-0.1 0.1 0 0 0.2 0 0.4-0.1 0-0.1 0z"/>
	<path class="s1" d="m118.9 34q-0.1 0-0.1 0 0-0.2 0-0.3 0 0 0.1 0 0 0.1 0 0.3z"/>
	<path class="s2" d="m118.8 34.4q0 0 0.1 0 0 0.1 0 0.2c-0.1-0.1-0.1-0.2-0.1-0.2z"/>
	<path class="s3" d="m25.4 1c2 0.1 3.9 0.4 5.9 0.8 1.1 0.2 2.1 0.4 3.1 0.7q0.3 0.1 0.5 0.2c0.1 0 0.2 0.1 0.2 0.3q0 4.7 0 9.5 0 0.3 0 0.6-0.9-0.3-1.8-0.6c-1.8-0.5-3.7-0.9-5.7-1.2-1.7-0.2-3.5-0.3-5.3 0-1.5 0.2-3 0.6-4.3 1.4-1.6 1-2.7 2.5-3.3 4.3-0.4 1.2-0.6 2.5-0.6 3.7q-0.1 1.7 0.1 3.4c0.2 1.3 0.6 2.5 1.4 3.7 1 1.4 2.4 2.3 4.1 2.6 0.9 0.2 1.8 0.4 2.8 0.3 1.7-0.2 3.3-0.9 4.4-2.3q0.1 0 0.2-0.2 0 0 0 0c-0.1 0-0.1 0-0.2 0q-3.4 0-6.7 0c-0.2 0-0.3 0-0.3-0.2q0-4.1 0-8.2c0-0.2 0.1-0.2 0.2-0.2q9.5 0 18.9 0c0.1 0 0.2 0 0.2 0.2q0 10.1 0 20.3c0 0.1-0.1 0.1-0.2 0.1q-3.8 0-7.6 0c-0.2 0-0.2 0-0.2-0.2q0-2.6 0-5.3 0-0.1 0-0.2-0.1 0.1-0.2 0.3c-0.8 1.5-1.9 2.6-3.3 3.5-1.8 1.2-3.9 2-6.1 2.4q-0.9 0.1-1.9 0.2c0 0-0.1 0-0.2 0q-0.2 0-0.4 0-0.1 0-0.2 0-0.3 0-0.6 0-0.1 0-0.2 0c-1.8 0-3.5-0.3-5.1-0.8q-1.4-0.4-2.7-1.1-1.8-0.9-3.3-2.2c-1.1-1-2.1-2.1-2.9-3.3q-1.4-2.1-2.2-4.6-0.4-1.5-0.7-3c-0.1-0.8-0.2-1.6-0.2-2.3q0-0.4 0-0.7 0-0.1 0-0.3 0-0.2 0-0.5 0-0.3 0-0.5 0-0.3 0-0.5 0-0.1 0-0.3c0-2 0.3-3.9 0.9-5.8q0.5-1.6 1.3-3.1 1-2 2.4-3.7 1.8-2 4-3.4c1.4-1 2.9-1.7 4.5-2.3 1.8-0.6 3.6-1.1 5.5-1.3q1.4-0.2 2.8-0.2 0.1 0 0.2 0 0.1 0 0.2 0c0.1 0 0.2 0 0.3 0q0.8 0 1.6 0c0.1 0 0.2 0 0.3 0q0.1 0 0.2 0c0.1 0 0.1 0 0.2 0z"/>
	<path class="s3" d="m84.4 40.9q-1.6-0.1-3.2-0.2-2.2-0.2-4.3-0.5c-1.3-0.2-2.5-0.5-3.7-0.8-0.2-0.1-0.2-0.1-0.2-0.3q0-5.1 0-10.1c0-0.3 0-0.3 0.2-0.2 1.6 0.5 3.3 0.9 5 1.2q1.9 0.4 3.9 0.7 1.6 0.2 3.1 0.2 1.4 0.1 2.8-0.2c0.6-0.1 1.1-0.2 1.5-0.5 0.6-0.4 0.9-1 0.8-1.7-0.1-0.3-0.3-0.6-0.5-0.7-0.5-0.3-1-0.5-1.5-0.6q-2.3-0.5-4.6-1c-1.7-0.4-3.4-0.9-4.9-1.6-1.8-0.8-3.3-1.9-4.4-3.4-0.9-1.3-1.4-2.7-1.7-4.2q-0.3-1.3-0.2-2.5c0-2.3 0.4-4.5 1.5-6.6 1.2-2.1 2.9-3.7 5-4.8 1.6-0.9 3.3-1.4 5.1-1.7q1.5-0.3 3.1-0.4c0 0 0.1 0 0.2 0q0.1 0 0.2 0c0.1 0 0.2 0 0.3 0q0.7 0 1.4 0c0.1 0.1 0.2 0 0.3 0q0.1 0 0.3 0 0.1 0 0.2 0 1.3 0 2.7 0.2 2.3 0.2 4.6 0.6 1.5 0.3 3 0.6c0.3 0.1 0.3 0.1 0.3 0.4q0 4.8 0 9.5 0 0 0 0.1c0 0.2-0.1 0.2-0.3 0.2q-1.7-0.4-3.4-0.8-2-0.3-3.9-0.6-1.3-0.2-2.7-0.3-1.2-0.1-2.4 0c-0.8 0-1.6 0.1-2.3 0.5-0.5 0.3-0.9 0.6-1 1.2-0.1 0.6 0.1 1 0.6 1.4 0.4 0.2 0.8 0.4 1.3 0.5 1.3 0.3 2.5 0.6 3.8 0.9 1.2 0.3 2.4 0.6 3.5 0.9 1.7 0.6 3.3 1.3 4.7 2.4 1.4 1.1 2.6 2.6 3.2 4.3q0.6 1.6 0.7 3.3 0.1 1.3 0.1 2.5c-0.2 2.3-0.9 4.4-2.2 6.3-0.9 1.1-1.9 2-3 2.8-1.6 1.1-3.3 1.9-5.2 2.3q-1.6 0.4-3.2 0.6-1.1 0.1-2.1 0.1-0.2 0-0.3 0-0.3 0-0.6 0-0.2 0-0.4 0-0.4 0-0.8 0c-0.1 0-0.3 0-0.4 0z"/>
	<path class="s4" d="m118.9 34.7c-0.1 0.2-0.1 0.5-0.2 0.7q-0.3 1.9-1.7 3.3-1.5 1.6-3.8 2-3.2 0.4-5.5-1.8-1.6-1.5-1.9-3.7c-0.3-2 0.2-3.8 1.5-5.3 1-1.2 2.3-2 3.8-2.2 2.6-0.4 4.7 0.4 6.3 2.4 0.9 1 1.3 2.2 1.4 3.5 0.1 0.1 0 0.2 0.1 0.4q0 0.1 0 0.3c0 0.1-0.1 0.2 0 0.3q-0.1 0.1 0 0.1z"/>
	<path class="s3" d="m43.1 20.9q0-9.5 0-19.1c0-0.1 0-0.2 0.2-0.2q6 0 12 0c0.2 0 0.2 0.1 0.2 0.2q0 14.1 0 28.2c0 0.2 0 0.2 0.2 0.2q6.6 0 13.2 0c0.1 0 0.1 0 0.1 0.2q0 4.8 0 9.7c0 0.1 0 0.2-0.2 0.2q-12.7 0-25.5 0c-0.2 0-0.2-0.1-0.2-0.3q0-9.5 0-19.1z"/>
</svg>